<svg width="34" height="32" viewBox="0 0 34 32" fill="none" xmlns="http://www.w3.org/2000/svg">
<path d="M6.29482 20.185L7.22646 20.4838C7.3092 20.5086 7.3807 20.5614 7.4286 20.6332C7.47899 20.7014 7.50104 20.7865 7.49014 20.8705C7.49084 23.5544 6.65524 26.1718 5.09951 28.3588C4.80433 28.8149 4.41151 29.1998 3.94943 29.4855C3.48735 29.7713 2.96755 29.9508 2.42761 30.0111C2.20091 30.0235 1.97398 29.9911 1.75983 29.9157C1.54567 29.8403 1.34849 29.7234 1.17956 29.5717C1.02302 29.4126 0.901486 29.2225 0.822778 29.0136C0.744069 28.8047 0.70992 28.5817 0.722525 28.3588C0.745592 28.0623 0.845179 27.7769 1.01155 27.5304C1.17793 27.2839 1.4054 27.0848 1.67174 26.9526C2.76627 26.2121 3.69643 25.2539 4.40414 24.1379C5.11185 23.0219 5.58192 21.772 5.78502 20.4662C5.79505 20.4103 5.81876 20.3578 5.85403 20.3133C5.88931 20.2689 5.93505 20.2338 5.98718 20.2113C6.03384 20.1859 6.08528 20.1704 6.13824 20.1659C6.19119 20.1613 6.24451 20.1679 6.29482 20.185ZM17.0344 3.96038C16.8935 5.38834 16.5989 6.7969 16.1555 8.16156C17.7133 8.65531 19.2111 9.32155 20.621 10.1479C21.6053 10.7807 22.0975 11.4545 22.0975 12.1694C22.1156 12.5404 21.9866 12.9037 21.7384 13.1801C21.6083 13.3092 21.4526 13.4095 21.2813 13.4746C21.11 13.5398 20.927 13.5682 20.744 13.5581C20.2685 13.5252 19.8145 13.3472 19.4432 13.0483C18.1195 12.0363 16.6794 11.1865 15.1536 10.517C12.7404 14.8531 8.34017 17.9528 1.95303 19.8158C1.86198 19.84 1.76529 19.8306 1.68056 19.7895C1.59749 19.7541 1.53133 19.688 1.496 19.6049L1.09169 18.7787C1.06839 18.7261 1.05636 18.6692 1.05636 18.6117C1.05636 18.5542 1.06839 18.4973 1.09169 18.4447C1.11032 18.3969 1.13869 18.3534 1.175 18.3171C1.21132 18.2808 1.25478 18.2524 1.30264 18.2338C6.55221 16.3121 10.2668 13.359 12.4465 9.37442C10.1594 8.57813 7.82983 7.90914 5.46865 7.37052C5.41027 7.3578 5.35582 7.33118 5.30992 7.29293C5.26402 7.25468 5.22802 7.20592 5.20497 7.15079C5.15846 7.04846 5.15218 6.93235 5.1874 6.8256L5.57412 5.9467C5.60766 5.86214 5.67055 5.79251 5.75126 5.75054C5.83196 5.70857 5.92509 5.69708 6.01357 5.71817C8.87316 6.22229 11.3104 6.74378 13.3254 7.28263C13.6335 6.19592 13.8452 5.0842 13.9582 3.96035H2.77919C2.70408 3.96367 2.62981 3.94343 2.56677 3.90246C2.50373 3.86149 2.45508 3.80184 2.42761 3.73185L2.00573 2.83536C1.98272 2.78776 1.96932 2.73609 1.96631 2.68331C1.96329 2.63052 1.97072 2.57766 1.98816 2.52775C2.00413 2.4801 2.02947 2.43612 2.06267 2.39838C2.09588 2.36065 2.13628 2.32993 2.18151 2.30802C2.23732 2.28518 2.29699 2.27324 2.3573 2.27286H26.5975L27.9335 0.690827C27.9995 0.613684 28.0917 0.563782 28.1924 0.550793C28.2931 0.537804 28.395 0.562653 28.4784 0.620524C29.1101 1.07713 29.7123 1.57323 30.2814 2.10587C30.5888 2.3643 30.7812 2.73412 30.8163 3.1342C30.8128 3.30706 30.7617 3.47562 30.6687 3.62137C30.5757 3.76711 30.4443 3.8844 30.2889 3.96036L29.5507 4.39982C29.5955 7.1663 29.4192 9.93195 29.0233 12.6703C28.8626 14.2808 28.2873 15.8221 27.3534 17.144C26.8651 17.6361 26.276 18.0166 25.6267 18.2593C24.9773 18.5021 24.2831 18.6013 23.5918 18.5502C23.4867 18.5504 23.3857 18.5094 23.3105 18.4359C23.2719 18.4018 23.2409 18.3599 23.2197 18.3129C23.1985 18.266 23.1875 18.215 23.1875 18.1635C23.1875 17.6952 22.83 17.3319 22.1152 17.0736C20.694 16.6668 19.2416 16.3787 17.7727 16.2123C17.6774 16.1999 17.5898 16.153 17.5267 16.0805C17.4596 16.0125 17.4218 15.9211 17.4212 15.8256V14.894C17.4206 14.838 17.433 14.7827 17.4574 14.7324C17.4818 14.6821 17.5176 14.6381 17.5618 14.6039C17.6025 14.5683 17.6499 14.5414 17.7013 14.5248C17.7527 14.5082 17.8069 14.5022 17.8607 14.5072C20.4177 14.7652 22.2929 14.8941 23.4863 14.894C24.0214 14.9255 24.5538 14.797 25.0156 14.5248C25.4039 14.2417 25.6683 13.82 25.7539 13.3471C26.4646 10.2705 26.7894 7.11729 26.7207 3.96038H17.0344ZM25.6131 24.0873C25.5505 25.2933 25.6272 26.5025 25.8417 27.6908V27.7084C25.8836 27.8707 25.9803 28.0135 26.1154 28.1127C26.2725 28.2064 26.45 28.2606 26.6327 28.2709C26.6866 28.269 26.7403 28.28 26.7892 28.3029C26.8381 28.3258 26.8808 28.36 26.9139 28.4027C26.9467 28.4395 26.9715 28.4827 26.9866 28.5297C27.0018 28.5766 27.0069 28.6261 27.0018 28.6752C27.003 29.271 26.7939 29.8481 26.4112 30.3048C26.0285 30.7614 25.4968 31.0683 24.91 31.1713H24.8924C22.7743 31.4097 20.6424 31.5036 18.5115 31.4525C16.2735 31.4525 14.574 31.4174 13.4132 31.3471C12.6277 31.3507 11.8478 31.2138 11.1105 30.9428C10.6685 30.6902 10.313 30.3101 10.0903 29.8523C9.86769 29.3944 9.78828 28.8801 9.86249 28.3764V19.517C9.8631 19.4634 9.8747 19.4104 9.89657 19.3615C9.91845 19.3125 9.95014 19.2685 9.98968 19.2323C10.0292 19.196 10.0758 19.1683 10.1265 19.1507C10.1771 19.1332 10.2309 19.1262 10.2844 19.1303C10.7062 19.1428 11.0503 19.1567 11.3139 19.1742C11.5776 19.1918 11.8764 19.2219 12.2104 19.2621C12.4794 19.2916 12.7461 19.3386 13.009 19.4028C13.2084 19.455 13.4026 19.5256 13.5891 19.6137C13.7523 19.681 13.8926 19.7939 13.9933 19.9389C14.0763 20.0702 14.1191 20.223 14.1164 20.3783C14.1175 20.5145 14.0854 20.6489 14.0228 20.7699C13.9602 20.8909 13.8691 20.9948 13.7573 21.0726C13.4339 21.2975 13.0817 21.4778 12.7101 21.6088V27.7611C12.7101 28.1252 12.8156 28.3479 13.0266 28.4291C14.4144 28.6589 15.8226 28.7414 17.2277 28.6752C18.3659 28.6752 19.3739 28.64 20.2517 28.5697C20.9042 28.5296 21.5535 28.4474 22.1954 28.3236C22.4632 28.2921 22.7192 28.1956 22.9412 28.0424C23.3882 27.4924 23.6811 26.0335 23.8201 23.6654C23.8203 23.6139 23.8313 23.563 23.8525 23.5161C23.8737 23.4691 23.9046 23.4272 23.9431 23.393C23.9799 23.357 24.0242 23.3297 24.0729 23.313C24.1215 23.2962 24.1733 23.2905 24.2244 23.2963L24.3474 23.3139L25.3494 23.7182C25.4277 23.7422 25.496 23.7914 25.5437 23.8581C25.5914 23.9248 25.6158 24.0054 25.6132 24.0873L25.6131 24.0873ZM14.802 16.6518C16.6248 17.2964 18.3472 18.196 19.9178 19.3237C20.4094 19.6371 20.8211 20.0609 21.1201 20.5613C21.4192 21.0618 21.5973 21.6251 21.6405 22.2065C21.665 22.6528 21.5207 23.0921 21.2362 23.4369C21.0912 23.5926 20.9136 23.7143 20.7161 23.7934C20.5185 23.8724 20.306 23.9067 20.0936 23.8939C19.7327 23.8699 19.3873 23.7381 19.1021 23.5156C18.8169 23.2931 18.6051 22.9901 18.494 22.6459L18.4764 22.6283C17.4625 20.6879 15.8964 19.0914 13.9759 18.0404C13.9297 18.0113 13.8902 17.9727 13.86 17.9273C13.8297 17.8819 13.8093 17.8306 13.8001 17.7767C13.7874 17.7249 13.7872 17.6708 13.7994 17.6189C13.8116 17.567 13.836 17.5186 13.8704 17.4779L14.345 16.7924C14.3906 16.7168 14.4623 16.6607 14.5467 16.6347C14.631 16.6088 14.7219 16.6149 14.802 16.6518L14.802 16.6518ZM25.8945 19.517C27.9127 20.4609 29.7742 21.7088 31.414 23.2172C31.9633 23.6909 32.4114 24.2705 32.7316 24.9214C33.0518 25.5723 33.2374 26.281 33.2773 27.0053C33.3047 27.5155 33.1528 28.0192 32.8479 28.4291C32.696 28.607 32.5049 28.7472 32.2897 28.8387C32.0744 28.9302 31.8409 28.9705 31.6074 28.9565C30.8239 28.9565 30.279 28.4291 29.9726 27.3744C28.959 24.7716 27.2051 22.5227 24.9276 20.9057C24.8473 20.8364 24.7969 20.7388 24.787 20.6332C24.7744 20.5312 24.7994 20.4281 24.8573 20.3432L25.4022 19.6225C25.4642 19.5508 25.548 19.5014 25.6408 19.4818C25.6832 19.4696 25.7276 19.4665 25.7713 19.4725C25.815 19.4786 25.857 19.4937 25.8945 19.517Z" fill="#EEEEFF"/>
</svg>
